<svg width="48" height="48" viewBox="0 0 48 48" fill="none" xmlns="http://www.w3.org/2000/svg">
  <rect width="48" height="48" rx="8" fill="url(#gradient)"/>
  <path d="M24 12C20 12 16 16 16 20C16 24 20 28 24 28C28 28 32 24 32 20C32 16 28 12 24 12Z" fill="white"/>
  <path d="M18 32C18 30 20 28 24 28C28 28 30 30 30 32V36H18V32Z" fill="white"/>
  <path d="M12 20C12 18 14 16 16 16" stroke="white" stroke-width="2" stroke-linecap="round"/>
  <path d="M36 20C36 18 34 16 32 16" stroke="white" stroke-width="2" stroke-linecap="round"/>
  <circle cx="20" cy="20" r="1.5" fill="#FF6B35"/>
  <circle cx="28" cy="20" r="1.5" fill="#FF6B35"/>
  <defs>
    <linearGradient id="gradient" x1="0" y1="0" x2="48" y2="48">
      <stop stop-color="#FF6B35"/>
      <stop offset="1" stop-color="#F7931E"/>
    </linearGradient>
  </defs>
</svg>
